#!OML:ASF H:\ManfredETheater\Project 1\Capture day 1\Session 1\subject.ASF
:FULLY-SPECIFIED
:DEGREES
309
root -13.7746 16.8574 -38.3272 -158.836 -23.6469 173.727
lowerback 11.9511 -1.79186 -4.55478
upperback -1.14304 -3.04112 0.400323
thorax -7.67698 -1.28643 3.54873
lowerneck -18.7144 0.506234 -2.39214
upperneck 0.508508 0.694793 1.2823
head 3.48038 0.213964 0.915071
rclavicle 3.57812e-014 -5.1684e-015
rhumerus -50.5257 -2.86256 -84.9911
rradius 54.9316
rwrist -14.5494
rhand -27.1389 2.54837
rfingers 7.12502
rthumb -0.55425 -27.4307
lclavicle 3.57812e-014 -5.1684e-015
lhumerus -37.9784 -16.287 98.8801
lradius 84.0026
lwrist 7.63827
lhand -19.5277 -8.3718
lfingers 7.12502
lthumb 6.79578 21.4991
rfemur -61.0961 -7.79018 18.5587
rtibia 68.3837
rfoot -22.3325 -11.3908
rtoes -32.2107
lfemur -11.1462 -5.4354 -28.7024
ltibia 35.0556
lfoot -37.3686 -3.62567
ltoes 6.89447
310
root -13.8325 16.8087 -38.4916 -158.5 -23.5942 173.609
lowerback 12.1225 -1.86393 -4.70821
upperback -1.05134 -3.1655 0.439598
thorax -7.65469 -1.34289 3.70453
lowerneck -18.7954 0.551501 -2.38183
upperneck -0.0589817 0.702838 1.3369
head 3.29183 0.202495 0.927253
rclavicle 6.65929e-014 1.19271e-015
rhumerus -51.4496 -2.92507 -84.5078
rradius 55.7369
rwrist -14.5941
rhand -27.4637 2.62337
rfingers 7.12502
rthumb -0.867909 -27.3546
lclavicle 6.65929e-014 1.19271e-015
lhumerus -37.584 -16.9678 98.9282
lradius 86.0577
lwrist 7.9972
lhand -19.7676 -8.43395
lfingers 7.12502
lthumb 6.5642 21.4443
rfemur -62.4986 -7.92169 18.6621
rtibia 68.3343
rfoot -22.2135 -11.358
rtoes -32.2811
lfemur -10.5196 -5.35685 -28.7718
ltibia 34.5569
lfoot -37.5403 -3.8373
ltoes 6.84055
311
root -13.8918 16.7579 -38.6601 -158.169 -23.5903 173.505
lowerback 12.2888 -1.95041 -4.81871
upperback -0.965801 -3.30216 0.487473
thorax -7.63567 -1.40678 3.84773
lowerneck -18.8204 0.595529 -2.33099
upperneck -0.657554 0.699457 1.34921
head 3.08282 0.181967 0.91618
rclavicle -8.94531e-015 1.59028e-015
rhumerus -52.4832 -2.88516 -84.0824
rradius 56.8134
rwrist -14.6437
rhand -27.7645 2.76825
rfingers 7.12502
rthumb -1.15848 -27.2084
lclavicle -8.94531e-015 1.59028e-015
lhumerus -37.2153 -17.6157 98.9749
lradius 88.2625
lwrist 8.3573
lhand -19.971 -8.51267
lfingers 7.12502
lthumb 6.36784 21.3716
rfemur -63.8553 -8.08853 18.7992
rtibia 68.2986
rfoot -22.084 -11.2673
rtoes -32.3671
lfemur -9.87383 -5.28646 -28.8032
ltibia 34.059
lfoot -37.7017 -4.09738
ltoes 6.7948
312
root -13.9521 16.705 -38.8324 -157.838 -23.6327 173.412
lowerback 12.4549 -2.05128 -4.88991
upperback -0.894134 -3.45173 0.543524
thorax -7.63084 -1.47759 3.98063
lowerneck -18.7971 0.642892 -2.26179
upperneck -1.26412 0.695833 1.34328
head 2.86322 0.159588 0.89547
rclavicle 3.8763e-014 1.35174e-014
rhumerus -53.6279 -2.7463 -83.7191
rradius 58.149
rwrist -14.7662
rhand -28.013 2.9727
rfingers 7.12502
rthumb -1.39848 -27.0025
lclavicle 3.8763e-014 1.35174e-014
lhumerus -36.8845 -18.2192 99.0284
lradius 90.6095
lwrist 8.70063
lhand -20.1221 -8.61151
lfingers 7.12502
lthumb 6.22197 21.2771
rfemur -65.1661 -8.28515 18.9675
rtibia 68.2856
rfoot -21.9392 -11.1139
rtoes -32.533
lfemur -9.2233 -5.23459 -28.7985
ltibia 33.5761
lfoot -37.8503 -4.39649
ltoes 6.7647
313
root -14.0134 16.6496 -39.0084 -157.503 -23.7073 173.334
lowerback 12.6079 -2.16064 -4.9225
upperback -0.835211 -3.60561 0.606177
thorax -7.63284 -1.55133 4.09973
lowerneck -18.7412 0.691799 -2.18216
upperneck -1.87054 0.691429 1.3263
head 2.63911 0.135487 0.869258
rclavicle 6.53008e-014 -1.43125e-014
rhumerus -54.8649 -2.5264 -83.4168
rradius 59.719
rwrist -15.0042
rhand -28.1838 3.23
rfingers 7.12502
rthumb -1.56345 -26.744
lclavicle 6.53008e-014 -1.43125e-014
lhumerus -36.5857 -18.7801 99.0917
lradius 93.0857
lwrist 9.01001
lhand -20.1977 -8.77826
lfingers 7.12502
lthumb 6.14893 21.1125
rfemur -66.4349 -8.49756 19.1672
rtibia 68.3056
rfoot -21.7658 -10.8955
rtoes -32.8217
lfemur -8.58661 -5.19428 -28.7594
ltibia 33.1238
lfoot -37.9825 -4.72679
ltoes 6.75716
314
root -14.0762 16.5919 -39.1878 -157.165 -23.8223 173.277
lowerback 12.7483 -2.28343 -4.90209
upperback -0.78647 -3.76758 0.679515
thorax -7.63965 -1.6304 4.20187
lowerneck -18.6603 0.743836 -2.09292
upperneck -2.47701 0.688563 1.29426
head 2.41191 0.110565 0.83672
rclavicle 2.49475e-014 3.97569e-016
rhumerus -56.1664 -2.23574 -83.169
rradius 61.4914
rwrist -15.3596
rhand -28.2615 3.51896
rfingers 7.12502
rthumb -1.63846 -26.4545
lclavicle 2.49475e-014 3.97569e-016
lhumerus -36.3109 -19.2978 99.1717
lradius 95.6682
lwrist 9.27731
lhand -20.2068 -8.99692
lfingers 7.12502
lthumb 6.14016 20.8941
rfemur -67.6531 -8.73556 19.4087
rtibia 68.3801
rfoot -21.5609 -10.5994
rtoes -33.1915
lfemur -7.97991 -5.19335 -28.6821
ltibia 32.7388
lfoot -38.1096 -5.05301
ltoes 6.71739
315
root -14.1403 16.5326 -39.371 -156.833 -23.9746 173.257
lowerback 12.8751 -2.41775 -4.81843
upperback -0.74929 -3.93275 0.769091
thorax -7.65319 -1.71255 4.28634
lowerneck -18.5621 0.800451 -2.00363
upperneck -3.07052 0.691903 1.25522
head 2.18756 0.0879981 0.802814
rclavicle 4.47266e-015 1.70955e-014
rhumerus -57.5173 -1.89113 -82.9668
rradius 63.4207
rwrist -15.7924
rhand -28.2674 3.8488
rfingers 7.12502
rthumb -1.64413 -26.1246
lclavicle 4.47266e-015 1.70955e-014
lhumerus -36.0645 -19.7792 99.2757
lradius 98.3268
lwrist 9.48153
lhand -20.1553 -9.24411
lfingers 7.12502
lthumb 6.18992 20.6455
rfemur -68.8029 -8.98385 19.7041
rtibia 68.5148
rfoot -21.3064 -10.2425
rtoes -33.6853
lfemur -7.39842 -5.25092 -28.5564
ltibia 32.4137
lfoot -38.2141 -5.34456
ltoes 6.60375
316
root -14.2054 16.4671 -39.5578 -156.509 -24.1483 173.27
lowerback 12.9875 -2.55886 -4.68921
upperback -0.720894 -4.09735 0.875654
thorax -7.66975 -1.79547 4.36306
lowerneck -18.4571 0.860865 -1.91727
upperneck -3.64551 0.701316 1.20724
head 1.96981 0.0678222 0.767523
rclavicle -2.24627e-014 -5.1684e-015
rhumerus -58.8897 -1.50741 -82.8021
rradius 65.4535
rwrist -16.2377
rhand -28.2325 4.21942
rfingers 7.12502
rthumb -1.61043 -25.7542
lclavicle -2.24627e-014 -5.1684e-015
lhumerus -35.8367 -20.2349 99.4061
lradius 101.021
lwrist 9.61601
lhand -20.0546 -9.46322
lfingers 7.12502
lthumb 6.28713 20.4235
rfemur -69.8972 -9.22045 20.0408
rtibia 68.7446
rfoot -20.9728 -9.83308
rtoes -34.2794
lfemur -6.84476 -5.36236 -28.3937
ltibia 32.1626
lfoot -38.2747 -5.55556
ltoes 6.3729
